<svg xmlns="http://www.w3.org/2000/svg" width="357.5" height="58.399" viewBox="0 0 357.5 58.399">
  <g id="Grupo_142936" data-name="Grupo 142936" transform="translate(-605.776 -6132.636)">
    <rect id="Rect치ngulo_40588" data-name="Rect치ngulo 40588" width="356.377" height="58.399" rx="10" transform="translate(606.899 6132.636)" fill="#21999a"/>
    <g id="Rect치ngulo_40590" data-name="Rect치ngulo 40590" transform="translate(605.776 6132.636)" fill="#fff" stroke="#afafaf" stroke-width="1">
      <rect width="55.03" height="58.399" rx="10" stroke="none"/>
      <rect x="0.5" y="0.5" width="54.03" height="57.399" rx="9.5" fill="none"/>
    </g>
    <path id="Trazado_183643" data-name="Trazado 183643" d="M5.835-4.889H3V0h-1.6V-12.086h4a4.736,4.736,0,0,1,3.142.93,3.345,3.345,0,0,1,1.1,2.706,3.254,3.254,0,0,1-.61,1.967,3.642,3.642,0,0,1-1.7,1.253L10.168-.1V0H8.458ZM3-6.192H5.445a2.762,2.762,0,0,0,1.888-.615,2.081,2.081,0,0,0,.7-1.647,2.191,2.191,0,0,0-.668-1.721,2.829,2.829,0,0,0-1.93-.607H3ZM15.356.166a3.924,3.924,0,0,1-2.972-1.2,4.452,4.452,0,0,1-1.146-3.208v-.282a5.39,5.39,0,0,1,.51-2.386,3.982,3.982,0,0,1,1.428-1.644,3.59,3.59,0,0,1,1.988-.594,3.364,3.364,0,0,1,2.723,1.154,5,5,0,0,1,.971,3.3v.639H12.775a3.193,3.193,0,0,0,.776,2.146,2.44,2.44,0,0,0,1.888.818,2.675,2.675,0,0,0,1.378-.332,3.462,3.462,0,0,0,.988-.88l.938.73A3.772,3.772,0,0,1,15.356.166Zm-.191-8.052a2.048,2.048,0,0,0-1.561.677,3.288,3.288,0,0,0-.78,1.9h4.5v-.116a2.925,2.925,0,0,0-.631-1.814A1.928,1.928,0,0,0,15.166-7.886Zm10.7,5.5a1.131,1.131,0,0,0-.469-.967,4.514,4.514,0,0,0-1.635-.594,7.731,7.731,0,0,1-1.851-.6,2.633,2.633,0,0,1-1.013-.83,1.986,1.986,0,0,1-.328-1.146A2.33,2.33,0,0,1,21.5-8.384a3.647,3.647,0,0,1,2.386-.764,3.753,3.753,0,0,1,2.478.789,2.5,2.5,0,0,1,.95,2.017H25.774a1.386,1.386,0,0,0-.535-1.087,2.006,2.006,0,0,0-1.349-.457,2.1,2.1,0,0,0-1.312.365,1.15,1.15,0,0,0-.473.955.932.932,0,0,0,.44.838,5.413,5.413,0,0,0,1.59.54A8.283,8.283,0,0,1,26-4.574a2.718,2.718,0,0,1,1.058.859A2.112,2.112,0,0,1,27.4-2.49a2.3,2.3,0,0,1-.963,1.93,4.039,4.039,0,0,1-2.5.726A4.523,4.523,0,0,1,22.03-.216a3.105,3.105,0,0,1-1.3-1.067,2.571,2.571,0,0,1-.469-1.482H21.8a1.59,1.59,0,0,0,.618,1.224,2.4,2.4,0,0,0,1.523.452,2.476,2.476,0,0,0,1.4-.353A1.084,1.084,0,0,0,25.865-2.382Zm3.129-2.191a5.3,5.3,0,0,1,.519-2.374,3.87,3.87,0,0,1,1.444-1.627,3.932,3.932,0,0,1,2.113-.573,3.788,3.788,0,0,1,2.968,1.27A4.886,4.886,0,0,1,37.171-4.5v.108a5.351,5.351,0,0,1-.5,2.353A3.813,3.813,0,0,1,35.233-.415a3.977,3.977,0,0,1-2.146.581A3.778,3.778,0,0,1,30.128-1.1a4.861,4.861,0,0,1-1.133-3.362Zm1.544.183a3.842,3.842,0,0,0,.693,2.4,2.218,2.218,0,0,0,1.855.9A2.2,2.2,0,0,0,34.946-2a4.2,4.2,0,0,0,.689-2.569,3.836,3.836,0,0,0-.7-2.395,2.23,2.23,0,0,0-1.864-.917,2.205,2.205,0,0,0-1.834.9A4.17,4.17,0,0,0,30.539-4.391ZM40.765,0H39.229V-12.75h1.536Zm5.42-2.083,2.225-6.9h1.569L46.758,0h-1.17L42.334-8.981H43.9Zm8.89,2.25a3.924,3.924,0,0,1-2.972-1.2,4.452,4.452,0,0,1-1.146-3.208v-.282a5.39,5.39,0,0,1,.51-2.386A3.982,3.982,0,0,1,52.9-8.554a3.59,3.59,0,0,1,1.988-.594,3.364,3.364,0,0,1,2.723,1.154,5,5,0,0,1,.971,3.3v.639H52.494a3.193,3.193,0,0,0,.776,2.146,2.44,2.44,0,0,0,1.888.818,2.675,2.675,0,0,0,1.378-.332,3.462,3.462,0,0,0,.988-.88l.938.73A3.772,3.772,0,0,1,55.076.166Zm-.191-8.052a2.048,2.048,0,0,0-1.561.677,3.288,3.288,0,0,0-.78,1.9h4.5v-.116a2.925,2.925,0,0,0-.631-1.814A1.928,1.928,0,0,0,54.885-7.886ZM64.7-7.6a4.6,4.6,0,0,0-.755-.058,2.024,2.024,0,0,0-2.05,1.287V0H60.355V-8.981h1.494l.025,1.038a2.391,2.391,0,0,1,2.142-1.2,1.569,1.569,0,0,1,.681.116ZM71.984,0H70.449V-12.75h1.536Zm8,0a3.226,3.226,0,0,1-.216-.946A3.426,3.426,0,0,1,77.214.166a3.17,3.17,0,0,1-2.179-.751,2.43,2.43,0,0,1-.851-1.905,2.539,2.539,0,0,1,1.067-2.179,5.029,5.029,0,0,1,3-.776h1.494v-.706a1.725,1.725,0,0,0-.481-1.282,1.935,1.935,0,0,0-1.419-.477,2.239,2.239,0,0,0-1.378.415,1.223,1.223,0,0,0-.556,1H74.367a2.119,2.119,0,0,1,.477-1.3,3.258,3.258,0,0,1,1.295-.992,4.356,4.356,0,0,1,1.8-.365,3.551,3.551,0,0,1,2.432.776,2.8,2.8,0,0,1,.913,2.137V-2.1A5.054,5.054,0,0,0,81.6-.133V0ZM77.438-1.17a2.7,2.7,0,0,0,1.37-.374,2.259,2.259,0,0,0,.938-.971V-4.358h-1.2q-2.822,0-2.822,1.652A1.4,1.4,0,0,0,76.2-1.577,1.85,1.85,0,0,0,77.438-1.17ZM93.126-2.382a1.131,1.131,0,0,0-.469-.967,4.514,4.514,0,0,0-1.635-.594,7.731,7.731,0,0,1-1.851-.6,2.633,2.633,0,0,1-1.013-.83,1.986,1.986,0,0,1-.328-1.146,2.33,2.33,0,0,1,.934-1.868,3.647,3.647,0,0,1,2.386-.764,3.753,3.753,0,0,1,2.478.789,2.5,2.5,0,0,1,.95,2.017H93.035A1.386,1.386,0,0,0,92.5-7.429a2.006,2.006,0,0,0-1.349-.457,2.1,2.1,0,0,0-1.312.365,1.15,1.15,0,0,0-.473.955.932.932,0,0,0,.44.838,5.413,5.413,0,0,0,1.59.54,8.283,8.283,0,0,1,1.864.614,2.718,2.718,0,0,1,1.058.859,2.112,2.112,0,0,1,.344,1.224A2.3,2.3,0,0,1,93.7-.56a4.039,4.039,0,0,1-2.5.726,4.523,4.523,0,0,1-1.909-.382,3.105,3.105,0,0,1-1.3-1.067,2.571,2.571,0,0,1-.469-1.482h1.536a1.59,1.59,0,0,0,.618,1.224,2.4,2.4,0,0,0,1.523.452,2.476,2.476,0,0,0,1.4-.353A1.084,1.084,0,0,0,93.126-2.382Zm3.129-2.191a5.3,5.3,0,0,1,.519-2.374,3.87,3.87,0,0,1,1.444-1.627,3.932,3.932,0,0,1,2.113-.573,3.788,3.788,0,0,1,2.968,1.27A4.886,4.886,0,0,1,104.432-4.5v.108a5.351,5.351,0,0,1-.5,2.353,3.813,3.813,0,0,1-1.436,1.623,3.977,3.977,0,0,1-2.146.581A3.778,3.778,0,0,1,97.389-1.1a4.861,4.861,0,0,1-1.133-3.362Zm1.544.183a3.842,3.842,0,0,0,.693,2.4,2.218,2.218,0,0,0,1.855.9A2.2,2.2,0,0,0,102.208-2a4.2,4.2,0,0,0,.689-2.569,3.836,3.836,0,0,0-.7-2.395,2.23,2.23,0,0,0-1.864-.917,2.205,2.205,0,0,0-1.834.9A4.17,4.17,0,0,0,97.8-4.391ZM108.026,0h-1.536V-12.75h1.536Zm8-.888A3.262,3.262,0,0,1,113.4.166a2.792,2.792,0,0,1-2.187-.834,3.611,3.611,0,0,1-.76-2.469V-8.981h1.536v5.8q0,2.042,1.66,2.042a2.3,2.3,0,0,0,2.341-1.312V-8.981h1.536V0h-1.461Zm7.429-.2a2.212,2.212,0,0,0,1.436-.5,1.752,1.752,0,0,0,.681-1.245h1.453a2.785,2.785,0,0,1-.531,1.469,3.5,3.5,0,0,1-1.307,1.112,3.772,3.772,0,0,1-1.731.415,3.7,3.7,0,0,1-2.918-1.224,4.877,4.877,0,0,1-1.083-3.349v-.257A5.407,5.407,0,0,1,119.938-7a3.667,3.667,0,0,1,1.382-1.585,3.926,3.926,0,0,1,2.129-.564,3.6,3.6,0,0,1,2.511.9,3.234,3.234,0,0,1,1.067,2.349h-1.453a2.116,2.116,0,0,0-.66-1.432,2.053,2.053,0,0,0-1.465-.56,2.149,2.149,0,0,0-1.814.843,3.957,3.957,0,0,0-.643,2.436v.291a3.878,3.878,0,0,0,.639,2.391A2.16,2.16,0,0,0,123.458-1.087ZM130.422,0h-1.536V-8.981h1.536Zm-1.66-11.364a.917.917,0,0,1,.228-.631.857.857,0,0,1,.677-.257.87.87,0,0,1,.681.257.907.907,0,0,1,.232.631.877.877,0,0,1-.232.623.886.886,0,0,1-.681.249.872.872,0,0,1-.677-.249A.886.886,0,0,1,128.762-11.364Zm3.71,6.79a5.3,5.3,0,0,1,.519-2.374,3.87,3.87,0,0,1,1.444-1.627,3.932,3.932,0,0,1,2.113-.573,3.788,3.788,0,0,1,2.968,1.27A4.886,4.886,0,0,1,140.648-4.5v.108a5.351,5.351,0,0,1-.5,2.353A3.813,3.813,0,0,1,138.71-.415a3.977,3.977,0,0,1-2.146.581,3.778,3.778,0,0,1-2.959-1.27,4.861,4.861,0,0,1-1.133-3.362Zm1.544.183a3.842,3.842,0,0,0,.693,2.4,2.218,2.218,0,0,0,1.855.9A2.2,2.2,0,0,0,138.424-2a4.2,4.2,0,0,0,.689-2.569,3.836,3.836,0,0,0-.7-2.395,2.23,2.23,0,0,0-1.864-.917,2.205,2.205,0,0,0-1.834.9A4.17,4.17,0,0,0,134.016-4.391Zm3.229-8.342H139.1l-2.225,2.44-1.237,0Zm6.782,3.752.05,1.129a3.273,3.273,0,0,1,2.689-1.295q2.847,0,2.872,3.212V0H148.1V-5.943a2.068,2.068,0,0,0-.444-1.436,1.78,1.78,0,0,0-1.357-.465,2.216,2.216,0,0,0-1.312.4,2.706,2.706,0,0,0-.88,1.046V0h-1.536V-8.981Zm11.762,4.416a5.261,5.261,0,0,1,.979-3.324,3.1,3.1,0,0,1,2.565-1.258,3.115,3.115,0,0,1,2.5,1.079V-12.75h1.536V0h-1.411l-.075-.963A3.127,3.127,0,0,1,159.317.166a3.068,3.068,0,0,1-2.544-1.278,5.321,5.321,0,0,1-.984-3.337Zm1.536.174A3.984,3.984,0,0,0,157.956-2a2.039,2.039,0,0,0,1.743.863,2.24,2.24,0,0,0,2.133-1.312V-6.574a2.257,2.257,0,0,0-2.117-1.27,2.049,2.049,0,0,0-1.76.872A4.386,4.386,0,0,0,157.325-4.391ZM169.477.166a3.924,3.924,0,0,1-2.972-1.2,4.452,4.452,0,0,1-1.146-3.208v-.282a5.39,5.39,0,0,1,.51-2.386A3.982,3.982,0,0,1,167.3-8.554a3.59,3.59,0,0,1,1.988-.594,3.364,3.364,0,0,1,2.723,1.154,5,5,0,0,1,.971,3.3v.639H166.9a3.193,3.193,0,0,0,.776,2.146,2.44,2.44,0,0,0,1.888.818,2.675,2.675,0,0,0,1.378-.332,3.462,3.462,0,0,0,.988-.88l.938.73A3.772,3.772,0,0,1,169.477.166Zm-.191-8.052a2.048,2.048,0,0,0-1.561.677,3.288,3.288,0,0,0-.78,1.9h4.5v-.116a2.925,2.925,0,0,0-.631-1.814A1.928,1.928,0,0,0,169.286-7.886ZM180.633,0H179.1V-12.75h1.536Zm8,0a3.226,3.226,0,0,1-.216-.946A3.426,3.426,0,0,1,185.863.166a3.17,3.17,0,0,1-2.179-.751,2.43,2.43,0,0,1-.851-1.905A2.539,2.539,0,0,1,183.9-4.669a5.029,5.029,0,0,1,3-.776h1.494v-.706a1.725,1.725,0,0,0-.481-1.282,1.935,1.935,0,0,0-1.419-.477,2.239,2.239,0,0,0-1.378.415,1.223,1.223,0,0,0-.556,1h-1.544a2.119,2.119,0,0,1,.477-1.3,3.258,3.258,0,0,1,1.295-.992,4.356,4.356,0,0,1,1.8-.365,3.551,3.551,0,0,1,2.432.776,2.8,2.8,0,0,1,.913,2.137V-2.1a5.054,5.054,0,0,0,.315,1.967V0Zm-2.548-1.17a2.7,2.7,0,0,0,1.37-.374,2.259,2.259,0,0,0,.938-.971V-4.358h-1.2q-2.822,0-2.822,1.652a1.4,1.4,0,0,0,.481,1.129A1.85,1.85,0,0,0,186.087-1.17Zm15.688-1.212a1.13,1.13,0,0,0-.469-.967,4.514,4.514,0,0,0-1.635-.594,7.731,7.731,0,0,1-1.851-.6,2.633,2.633,0,0,1-1.013-.83,1.986,1.986,0,0,1-.328-1.146,2.33,2.33,0,0,1,.934-1.868,3.647,3.647,0,0,1,2.386-.764,3.753,3.753,0,0,1,2.478.789,2.5,2.5,0,0,1,.95,2.017h-1.544a1.386,1.386,0,0,0-.535-1.087,2.006,2.006,0,0,0-1.349-.457,2.1,2.1,0,0,0-1.312.365,1.15,1.15,0,0,0-.473.955.932.932,0,0,0,.44.838,5.413,5.413,0,0,0,1.59.54,8.283,8.283,0,0,1,1.864.614,2.718,2.718,0,0,1,1.058.859,2.112,2.112,0,0,1,.344,1.224,2.3,2.3,0,0,1-.963,1.93,4.039,4.039,0,0,1-2.5.726,4.523,4.523,0,0,1-1.909-.382,3.105,3.105,0,0,1-1.3-1.067,2.571,2.571,0,0,1-.469-1.482h1.536a1.59,1.59,0,0,0,.618,1.224,2.4,2.4,0,0,0,1.523.452,2.476,2.476,0,0,0,1.4-.353A1.084,1.084,0,0,0,201.775-2.382ZM206.98,0h-1.536V-8.981h1.536Zm-1.66-11.364a.917.917,0,0,1,.228-.631.857.857,0,0,1,.677-.257.87.87,0,0,1,.681.257.907.907,0,0,1,.232.631.877.877,0,0,1-.232.623.886.886,0,0,1-.681.249.872.872,0,0,1-.677-.249A.886.886,0,0,1,205.32-11.364Zm5.562,2.382.042,1a3.317,3.317,0,0,1,2.665-1.162A2.568,2.568,0,0,1,216.152-7.7a3.4,3.4,0,0,1,1.166-1.046,3.445,3.445,0,0,1,1.7-.4q2.955,0,3,3.129V0h-1.536V-5.927a2.062,2.062,0,0,0-.44-1.44,1.937,1.937,0,0,0-1.478-.477,2.036,2.036,0,0,0-1.419.51,2.071,2.071,0,0,0-.656,1.374V0h-1.544V-5.885a1.713,1.713,0,0,0-1.917-1.959,2.055,2.055,0,0,0-2.067,1.287V0h-1.536V-8.981Zm19,8.093A3.262,3.262,0,0,1,227.25.166a2.792,2.792,0,0,1-2.187-.834,3.611,3.611,0,0,1-.76-2.469V-8.981h1.536v5.8q0,2.042,1.66,2.042a2.3,2.3,0,0,0,2.341-1.312V-8.981h1.536V0h-1.461Zm5.5.888h-1.536V-12.75h1.536Zm8,0a3.226,3.226,0,0,1-.216-.946A3.426,3.426,0,0,1,240.606.166a3.17,3.17,0,0,1-2.179-.751,2.43,2.43,0,0,1-.851-1.905,2.539,2.539,0,0,1,1.067-2.179,5.029,5.029,0,0,1,3-.776h1.494v-.706a1.725,1.725,0,0,0-.481-1.282,1.935,1.935,0,0,0-1.419-.477,2.239,2.239,0,0,0-1.378.415,1.223,1.223,0,0,0-.556,1h-1.544a2.119,2.119,0,0,1,.477-1.3,3.258,3.258,0,0,1,1.295-.992,4.356,4.356,0,0,1,1.8-.365,3.551,3.551,0,0,1,2.432.776,2.8,2.8,0,0,1,.913,2.137V-2.1a5.054,5.054,0,0,0,.315,1.967V0Zm-2.548-1.17a2.7,2.7,0,0,0,1.37-.374,2.259,2.259,0,0,0,.938-.971V-4.358h-1.2q-2.822,0-2.822,1.652a1.4,1.4,0,0,0,.481,1.129A1.85,1.85,0,0,0,240.831-1.17Zm9.853.083a2.212,2.212,0,0,0,1.436-.5,1.752,1.752,0,0,0,.681-1.245h1.453a2.785,2.785,0,0,1-.531,1.469,3.5,3.5,0,0,1-1.307,1.112,3.772,3.772,0,0,1-1.731.415,3.7,3.7,0,0,1-2.918-1.224,4.877,4.877,0,0,1-1.083-3.349v-.257A5.407,5.407,0,0,1,247.164-7a3.667,3.667,0,0,1,1.382-1.585,3.926,3.926,0,0,1,2.129-.564,3.6,3.6,0,0,1,2.511.9,3.234,3.234,0,0,1,1.067,2.349H252.8a2.116,2.116,0,0,0-.66-1.432,2.053,2.053,0,0,0-1.465-.56,2.149,2.149,0,0,0-1.814.843,3.957,3.957,0,0,0-.643,2.436v.291a3.878,3.878,0,0,0,.639,2.391A2.16,2.16,0,0,0,250.684-1.087ZM257.648,0h-1.536V-8.981h1.536Zm-1.66-11.364a.917.917,0,0,1,.228-.631.857.857,0,0,1,.677-.257.87.87,0,0,1,.681.257.907.907,0,0,1,.232.631.877.877,0,0,1-.232.623.886.886,0,0,1-.681.249.872.872,0,0,1-.677-.249A.886.886,0,0,1,255.988-11.364Zm3.71,6.79a5.305,5.305,0,0,1,.519-2.374,3.87,3.87,0,0,1,1.444-1.627,3.932,3.932,0,0,1,2.113-.573,3.788,3.788,0,0,1,2.968,1.27A4.886,4.886,0,0,1,267.875-4.5v.108a5.351,5.351,0,0,1-.5,2.353,3.813,3.813,0,0,1-1.436,1.623,3.977,3.977,0,0,1-2.146.581,3.778,3.778,0,0,1-2.959-1.27A4.861,4.861,0,0,1,259.7-4.466Zm1.544.183a3.842,3.842,0,0,0,.693,2.4,2.218,2.218,0,0,0,1.855.9A2.2,2.2,0,0,0,265.65-2a4.2,4.2,0,0,0,.689-2.569,3.836,3.836,0,0,0-.7-2.395,2.23,2.23,0,0,0-1.864-.917,2.205,2.205,0,0,0-1.834.9A4.17,4.17,0,0,0,261.242-4.391Zm3.229-8.342h1.859l-2.225,2.44-1.237,0Zm6.782,3.752.05,1.129a3.273,3.273,0,0,1,2.689-1.295q2.847,0,2.872,3.212V0h-1.536V-5.943a2.068,2.068,0,0,0-.444-1.436,1.78,1.78,0,0,0-1.357-.465,2.216,2.216,0,0,0-1.312.4,2.706,2.706,0,0,0-.88,1.046V0H269.8V-8.981Z" transform="translate(668.406 6167.728)" fill="#f5f5f5"/>
    <g id="_6dkaFx" data-name="6dkaFx" transform="translate(1387.04 6599.27)">
      <g id="Grupo_142364" data-name="Grupo 142364" transform="translate(-771.384 -457.341)">
        <path id="Trazado_174766" data-name="Trazado 174766" d="M-737.758-419.654h-12.06a1.97,1.97,0,0,0-.2-.026c-.363-.01-.726-.007-1.088-.027a.586.586,0,0,1-.618-.534,2.442,2.442,0,0,1-.054-.456c-.012-.586-.014-1.172-.02-1.758,0-.075,0-.149,0-.24h-.165c-1.206.008-2.413.021-3.619.021a6.675,6.675,0,0,1-.791-.067.5.5,0,0,1-.422-.359,2.074,2.074,0,0,1-.1-.341c-.239-1.372-.474-2.744-.717-4.115a.287.287,0,0,0-.14-.19c-.746-.307-1.5-.6-2.245-.9a.461.461,0,0,0-.5.059c-1.094.771-2.2,1.519-3.3,2.289a.883.883,0,0,1-1.177-.1c-.951-.972-1.9-1.943-2.845-2.922a.6.6,0,0,1-.072-.771c.055-.1.114-.192.178-.283q1.157-1.653,2.32-3.3a.263.263,0,0,0,.026-.3c-.266-.6-.522-1.2-.781-1.8-.06-.141-.115-.284-.172-.425a.385.385,0,0,0-.321-.261c-.247-.038-.491-.1-.737-.145-1.149-.217-2.3-.429-3.446-.649-.331-.064-.432-.177-.482-.512-.036-.24-.056-.482-.083-.723v-3.182c.014-.138.031-.275.042-.413.033-.446.175-.634.565-.711.471-.093.945-.177,1.418-.263.924-.167,1.849-.329,2.772-.5a.382.382,0,0,0,.255-.165q.491-1.14.948-2.3a.389.389,0,0,0-.032-.3c-.22-.355-.457-.7-.693-1.045-.555-.811-1.121-1.614-1.667-2.431a.8.8,0,0,1,.092-1.055q1.448-1.45,2.927-2.869a.614.614,0,0,1,.856-.071c.274.166.542.342.8.527.922.651,1.84,1.309,2.763,1.959a.275.275,0,0,0,.214.052q1.187-.484,2.365-.991a.274.274,0,0,0,.143-.171c.147-.822.279-1.647.424-2.469.106-.6.207-1.194.346-1.783.11-.466.329-.6.812-.619.214-.007.428-.027.642-.041h2.889c.116.014.232.036.349.04.579.019.76.15.871.722q.386,2,.739,4a.422.422,0,0,0,.272.358c.746.308,1.49.621,2.239.92a.351.351,0,0,0,.281-.041c.565-.385,1.118-.786,1.68-1.174.625-.432,1.245-.871,1.886-1.279a.631.631,0,0,1,.925.092c.288.252.57.514.838.788.67.681,1.343,1.36,1.99,2.063.395.429.393.615.07,1.092q-1.156,1.705-2.332,3.4a.414.414,0,0,0-.042.455c.3.7.583,1.4.862,2.105a.316.316,0,0,0,.262.226q1.091.19,2.181.387c.671.122,1.345.234,2.011.382.5.111.661.3.667.794q.024,2.008.007,4.017a.689.689,0,0,1-.62.75c-.405.1-.814.178-1.224.254-1.014.186-2.029.364-3.042.55-.077.014-.193.042-.214.094-.112.279-.2.568-.3.875,1.179,0,2.314-.009,3.449,0,1.087.011,2.176.009,3.26.079a1.883,1.883,0,0,1,1.659,1.738c.026.339.054.678.082,1.017v8.668a2.032,2.032,0,0,0-.025.225q-.008,1.736-.013,3.472a.655.655,0,0,1-.58.583q-1.61,0-3.22.007A2,2,0,0,0-737.758-419.654Zm-17.753-4.515c.914,0,1.8,0,2.683,0,.131,0,.179-.066.2-.184.165-.754.339-1.507.5-2.262a8.3,8.3,0,0,0,.268-1.433c.065-2.025.088-4.051.127-6.088a6.545,6.545,0,0,1-5.041-.223,6.01,6.01,0,0,1-3.283-3.867,6.221,6.221,0,0,1,2.8-7.159,6.3,6.3,0,0,1,7.721,1.032,6.046,6.046,0,0,1,1.721,3.829,6.285,6.285,0,0,1-1.849,5.026.4.4,0,0,0,.079.022q2.844,0,5.688,0a.243.243,0,0,0,.175-.128c.114-.268.208-.545.311-.818.123-.325.236-.654.374-.972a.664.664,0,0,1,.524-.4c.26-.045.517-.11.777-.158,1.1-.206,2.2-.415,3.306-.61a.226.226,0,0,0,.222-.261c0-.439.011-.879.013-1.318s0-.875,0-1.313c-.829-.136-1.606-.258-2.381-.391-.611-.1-1.221-.213-1.828-.335a.952.952,0,0,1-.776-.73,4.26,4.26,0,0,0-.173-.536c-.321-.755-.634-1.515-.983-2.257a.945.945,0,0,1,.094-1.049c.565-.8,1.11-1.605,1.665-2.408.241-.348.485-.693.739-1.055-.623-.606-1.237-1.194-1.837-1.8a.28.28,0,0,0-.436-.029c-1.07.757-2.154,1.493-3.22,2.256a.839.839,0,0,1-.952.082,18.4,18.4,0,0,0-2.949-1.218.816.816,0,0,1-.645-.753c-.014-.131-.057-.258-.081-.388-.222-1.183-.447-2.366-.66-3.551-.029-.159-.1-.216-.247-.216-.816,0-1.631,0-2.447,0-.139,0-.217.052-.243.217-.2,1.279-.424,2.556-.63,3.834a.967.967,0,0,1-.721.845,18.474,18.474,0,0,0-2.855,1.173.9.9,0,0,1-1.019-.064c-.547-.385-1.107-.752-1.657-1.132-.59-.407-1.175-.822-1.8-1.263l-1.924,2.081c-.056-.03-.034,0-.012.038.763,1.116,1.52,2.237,2.294,3.346a.937.937,0,0,1,.059,1.035c-.29.61-.562,1.228-.822,1.851-.148.352-.26.719-.384,1.082a.838.838,0,0,1-.7.605c-.947.162-1.892.336-2.838.5-.431.076-.863.144-1.308.217,0,.917,0,1.816.007,2.714,0,.053.089.136.15.153.214.059.433.1.652.14,1.093.211,2.184.435,3.281.624a.9.9,0,0,1,.776.679c.179.542.372,1.08.591,1.607.206.495.456.971.68,1.458a.631.631,0,0,1-.039.639c-.174.269-.336.546-.518.81q-.9,1.308-1.821,2.606a.235.235,0,0,0,.021.346q.452.48.9.964l.889.957c.746-.52,1.424-1,2.108-1.468.483-.331.975-.648,1.459-.977a.774.774,0,0,1,.827-.07c.22.1.442.2.668.3.742.3,1.474.626,2.233.873a1,1,0,0,1,.79.828c.15.857.307,1.713.456,2.571C-755.677-425.208-755.6-424.7-755.511-424.169Zm20.3,3.024v-10.545h-15.03v10.545Zm-18.825-14.1a4.812,4.812,0,0,0,4.748-4.9,4.8,4.8,0,0,0-5.268-4.576,4.79,4.79,0,0,0-4.238,4.8A4.772,4.772,0,0,0-754.041-435.248Zm18.78,2.053a.613.613,0,0,0-.637-.77q-3.841,0-7.681,0-3.024,0-6.048.019a.62.62,0,0,0-.609.753Z" transform="translate(771.384 457.341)" fill="#0f1027"/>
        <path id="Trazado_174767" data-name="Trazado 174767" d="M31.616,343.972a1.982,1.982,0,0,1,.224-.025q1.61-.005,3.22-.007a.655.655,0,0,0,.58-.583q.006-1.736.013-3.472a2.029,2.029,0,0,1,.025-.225v4.313Z" transform="translate(2.01 -306.285)" fill="#0f1027"/>
        <path id="Trazado_174768" data-name="Trazado 174768" d="M-232.2,256.958l-3.968,4.008-2.618-2.234.99-1.148,1.549,1.331,3.067-3.043Z" transform="translate(261.086 -226.006)" fill="#0f1027"/>
        <path id="Trazado_174769" data-name="Trazado 174769" d="M-236.091,171.939l-2.647-2.245c.276-.317.539-.623.806-.924a.259.259,0,0,1,.391-.027c.24.191.473.39.71.585.151.124.308.241.451.374a.223.223,0,0,0,.367-.013c.384-.385.781-.757,1.17-1.138.562-.551,1.121-1.106,1.687-1.666l.953,1.027Z" transform="translate(261.043 -140.746)" fill="#0f1027"/>
      </g>
    </g>
  </g>
</svg>
