<svg xmlns="http://www.w3.org/2000/svg" width="356.5" height="58.399" viewBox="0 0 356.5 58.399">
  <g id="Grupo_142935" data-name="Grupo 142935" transform="translate(-222 -6132.636)">
    <g id="Grupo_142896" data-name="Grupo 142896" transform="translate(-8.5 4417.772)">
      <rect id="Rect치ngulo_37703" data-name="Rect치ngulo 37703" width="355.377" height="58.399" rx="10" transform="translate(231.623 1714.863)" fill="#21999a"/>
      <g id="Rect치ngulo_37706" data-name="Rect치ngulo 37706" transform="translate(230.5 1714.863)" fill="#fff" stroke="#afafaf" stroke-width="1">
        <rect width="55.03" height="58.399" rx="10" stroke="none"/>
        <rect x="0.5" y="0.5" width="54.03" height="57.399" rx="9.5" fill="none"/>
      </g>
      <path id="Trazado_183642" data-name="Trazado 183642" d="M4.964-5.387A7.494,7.494,0,0,1,1.98-6.836a2.768,2.768,0,0,1-.934-2.121,2.923,2.923,0,0,1,1.141-2.362,4.536,4.536,0,0,1,2.968-.934,4.951,4.951,0,0,1,2.22.481,3.651,3.651,0,0,1,1.511,1.328,3.4,3.4,0,0,1,.535,1.851h-1.6a2.21,2.21,0,0,0-.7-1.729,2.835,2.835,0,0,0-1.967-.629,2.9,2.9,0,0,0-1.839.52,1.734,1.734,0,0,0-.66,1.443,1.56,1.56,0,0,0,.627,1.252A6.147,6.147,0,0,0,5.416-6.8a9.9,9.9,0,0,1,2.357.935A3.577,3.577,0,0,1,9.035-4.673a3.04,3.04,0,0,1,.411,1.6A2.824,2.824,0,0,1,8.3-.718,4.884,4.884,0,0,1,5.238.166,5.681,5.681,0,0,1,2.914-.311,3.911,3.911,0,0,1,1.249-1.619,3.191,3.191,0,0,1,.664-3.5h1.6a2.082,2.082,0,0,0,.809,1.731,3.408,3.408,0,0,0,2.162.635,3.133,3.133,0,0,0,1.934-.515,1.672,1.672,0,0,0,.672-1.4,1.641,1.641,0,0,0-.623-1.374A7.178,7.178,0,0,0,4.964-5.387Zm5.877.813a5.3,5.3,0,0,1,.519-2.374A3.87,3.87,0,0,1,12.8-8.575a3.932,3.932,0,0,1,2.113-.573,3.788,3.788,0,0,1,2.968,1.27A4.886,4.886,0,0,1,19.017-4.5v.108a5.351,5.351,0,0,1-.5,2.353A3.813,3.813,0,0,1,17.079-.415a3.977,3.977,0,0,1-2.146.581A3.778,3.778,0,0,1,11.974-1.1a4.861,4.861,0,0,1-1.133-3.362Zm1.544.183a3.842,3.842,0,0,0,.693,2.4,2.218,2.218,0,0,0,1.855.9A2.2,2.2,0,0,0,16.792-2a4.2,4.2,0,0,0,.689-2.569,3.836,3.836,0,0,0-.7-2.395,2.23,2.23,0,0,0-1.864-.917,2.205,2.205,0,0,0-1.834.9A4.17,4.17,0,0,0,12.385-4.391ZM22.611,0H21.076V-12.75h1.536Zm8-.888A3.262,3.262,0,0,1,27.982.166a2.792,2.792,0,0,1-2.187-.834,3.611,3.611,0,0,1-.76-2.469V-8.981h1.536v5.8q0,2.042,1.66,2.042a2.3,2.3,0,0,0,2.341-1.312V-8.981h1.536V0H30.646Zm7.429-.2a2.212,2.212,0,0,0,1.436-.5,1.752,1.752,0,0,0,.681-1.245h1.453a2.785,2.785,0,0,1-.531,1.469A3.5,3.5,0,0,1,39.773-.249a3.772,3.772,0,0,1-1.731.415,3.7,3.7,0,0,1-2.918-1.224,4.877,4.877,0,0,1-1.083-3.349v-.257A5.407,5.407,0,0,1,34.523-7a3.667,3.667,0,0,1,1.382-1.585,3.926,3.926,0,0,1,2.129-.564,3.6,3.6,0,0,1,2.511.9,3.234,3.234,0,0,1,1.067,2.349H40.159a2.116,2.116,0,0,0-.66-1.432,2.053,2.053,0,0,0-1.465-.56,2.149,2.149,0,0,0-1.814.843,3.957,3.957,0,0,0-.643,2.436v.291a3.878,3.878,0,0,0,.639,2.391A2.16,2.16,0,0,0,38.042-1.087ZM45.007,0H43.471V-8.981h1.536Zm-1.66-11.364a.917.917,0,0,1,.228-.631.857.857,0,0,1,.677-.257.87.87,0,0,1,.681.257.907.907,0,0,1,.232.631.877.877,0,0,1-.232.623.886.886,0,0,1-.681.249.872.872,0,0,1-.677-.249A.886.886,0,0,1,43.347-11.364Zm3.71,6.79a5.3,5.3,0,0,1,.519-2.374A3.87,3.87,0,0,1,49.02-8.575a3.932,3.932,0,0,1,2.113-.573A3.788,3.788,0,0,1,54.1-7.877,4.886,4.886,0,0,1,55.233-4.5v.108a5.351,5.351,0,0,1-.5,2.353A3.813,3.813,0,0,1,53.3-.415a3.977,3.977,0,0,1-2.146.581A3.778,3.778,0,0,1,48.19-1.1a4.861,4.861,0,0,1-1.133-3.362Zm1.544.183a3.842,3.842,0,0,0,.693,2.4,2.218,2.218,0,0,0,1.855.9A2.2,2.2,0,0,0,53.009-2,4.2,4.2,0,0,0,53.7-4.574,3.836,3.836,0,0,0,53-6.969a2.23,2.23,0,0,0-1.864-.917,2.205,2.205,0,0,0-1.834.9A4.17,4.17,0,0,0,48.6-4.391Zm3.229-8.342h1.859l-2.225,2.44-1.237,0Zm6.782,3.752.05,1.129a3.273,3.273,0,0,1,2.689-1.295q2.847,0,2.872,3.212V0H62.688V-5.943a2.068,2.068,0,0,0-.444-1.436,1.78,1.78,0,0,0-1.357-.465,2.216,2.216,0,0,0-1.312.4,2.706,2.706,0,0,0-.88,1.046V0H57.159V-8.981ZM70.374-4.565a5.261,5.261,0,0,1,.979-3.324,3.1,3.1,0,0,1,2.565-1.258,3.115,3.115,0,0,1,2.5,1.079V-12.75h1.536V0H76.542l-.075-.963A3.127,3.127,0,0,1,73.9.166a3.068,3.068,0,0,1-2.544-1.278,5.321,5.321,0,0,1-.984-3.337Zm1.536.174A3.984,3.984,0,0,0,72.541-2a2.039,2.039,0,0,0,1.743.863,2.24,2.24,0,0,0,2.133-1.312V-6.574A2.257,2.257,0,0,0,74.3-7.844a2.049,2.049,0,0,0-1.76.872A4.386,4.386,0,0,0,71.91-4.391ZM84.062.166a3.924,3.924,0,0,1-2.972-1.2,4.452,4.452,0,0,1-1.146-3.208v-.282a5.39,5.39,0,0,1,.51-2.386,3.982,3.982,0,0,1,1.428-1.644,3.59,3.59,0,0,1,1.988-.594,3.364,3.364,0,0,1,2.723,1.154,5,5,0,0,1,.971,3.3v.639H81.48a3.193,3.193,0,0,0,.776,2.146,2.44,2.44,0,0,0,1.888.818,2.675,2.675,0,0,0,1.378-.332,3.462,3.462,0,0,0,.988-.88l.938.73A3.772,3.772,0,0,1,84.062.166Zm-.191-8.052a2.048,2.048,0,0,0-1.561.677,3.288,3.288,0,0,0-.78,1.9h4.5v-.116A2.925,2.925,0,0,0,85.4-7.242,1.928,1.928,0,0,0,83.871-7.886ZM95.218,0H93.683V-12.75h1.536Zm8,0A3.226,3.226,0,0,1,103-.946,3.426,3.426,0,0,1,100.448.166a3.17,3.17,0,0,1-2.179-.751,2.43,2.43,0,0,1-.851-1.905,2.539,2.539,0,0,1,1.067-2.179,5.029,5.029,0,0,1,3-.776h1.494v-.706a1.725,1.725,0,0,0-.481-1.282,1.935,1.935,0,0,0-1.419-.477A2.239,2.239,0,0,0,99.7-7.5a1.223,1.223,0,0,0-.556,1H97.6a2.119,2.119,0,0,1,.477-1.3,3.258,3.258,0,0,1,1.295-.992,4.356,4.356,0,0,1,1.8-.365,3.551,3.551,0,0,1,2.432.776,2.8,2.8,0,0,1,.913,2.137V-2.1a5.054,5.054,0,0,0,.315,1.967V0Zm-2.548-1.17a2.7,2.7,0,0,0,1.37-.374,2.259,2.259,0,0,0,.938-.971V-4.358h-1.2q-2.822,0-2.822,1.652a1.4,1.4,0,0,0,.481,1.129A1.85,1.85,0,0,0,100.672-1.17ZM116.36-2.382a1.131,1.131,0,0,0-.469-.967,4.514,4.514,0,0,0-1.635-.594,7.731,7.731,0,0,1-1.851-.6,2.633,2.633,0,0,1-1.013-.83,1.986,1.986,0,0,1-.328-1.146A2.33,2.33,0,0,1,112-8.384a3.647,3.647,0,0,1,2.386-.764,3.753,3.753,0,0,1,2.478.789,2.5,2.5,0,0,1,.95,2.017h-1.544a1.386,1.386,0,0,0-.535-1.087,2.006,2.006,0,0,0-1.349-.457,2.1,2.1,0,0,0-1.312.365,1.15,1.15,0,0,0-.473.955.932.932,0,0,0,.44.838,5.413,5.413,0,0,0,1.59.54,8.283,8.283,0,0,1,1.864.614,2.718,2.718,0,0,1,1.058.859A2.112,2.112,0,0,1,117.9-2.49a2.3,2.3,0,0,1-.963,1.93,4.039,4.039,0,0,1-2.5.726,4.523,4.523,0,0,1-1.909-.382,3.105,3.105,0,0,1-1.3-1.067,2.571,2.571,0,0,1-.469-1.482h1.536a1.59,1.59,0,0,0,.618,1.224,2.4,2.4,0,0,0,1.523.452,2.476,2.476,0,0,0,1.4-.353A1.084,1.084,0,0,0,116.36-2.382ZM121.565,0h-1.536V-8.981h1.536ZM119.9-11.364a.917.917,0,0,1,.228-.631.857.857,0,0,1,.677-.257.87.87,0,0,1,.681.257.907.907,0,0,1,.232.631.877.877,0,0,1-.232.623.886.886,0,0,1-.681.249.872.872,0,0,1-.677-.249A.886.886,0,0,1,119.9-11.364Zm5.562,2.382.042,1a3.317,3.317,0,0,1,2.665-1.162A2.568,2.568,0,0,1,130.737-7.7,3.4,3.4,0,0,1,131.9-8.749a3.445,3.445,0,0,1,1.7-.4q2.955,0,3,3.129V0H135.07V-5.927a2.062,2.062,0,0,0-.44-1.44,1.937,1.937,0,0,0-1.478-.477,2.036,2.036,0,0,0-1.419.51,2.071,2.071,0,0,0-.656,1.374V0h-1.544V-5.885a1.713,1.713,0,0,0-1.917-1.959,2.055,2.055,0,0,0-2.067,1.287V0h-1.536V-8.981Zm19,8.093A3.262,3.262,0,0,1,141.835.166a2.792,2.792,0,0,1-2.187-.834,3.611,3.611,0,0,1-.76-2.469V-8.981h1.536v5.8q0,2.042,1.66,2.042a2.3,2.3,0,0,0,2.341-1.312V-8.981h1.536V0H144.5Zm5.5.888h-1.536V-12.75h1.536Zm8,0a3.226,3.226,0,0,1-.216-.946A3.426,3.426,0,0,1,155.191.166a3.17,3.17,0,0,1-2.179-.751,2.43,2.43,0,0,1-.851-1.905,2.539,2.539,0,0,1,1.067-2.179,5.029,5.029,0,0,1,3-.776h1.494v-.706a1.725,1.725,0,0,0-.481-1.282,1.935,1.935,0,0,0-1.419-.477,2.239,2.239,0,0,0-1.378.415,1.223,1.223,0,0,0-.556,1h-1.544a2.119,2.119,0,0,1,.477-1.3,3.258,3.258,0,0,1,1.295-.992,4.356,4.356,0,0,1,1.8-.365,3.551,3.551,0,0,1,2.432.776,2.8,2.8,0,0,1,.913,2.137V-2.1a5.054,5.054,0,0,0,.315,1.967V0Zm-2.548-1.17a2.7,2.7,0,0,0,1.37-.374,2.259,2.259,0,0,0,.938-.971V-4.358h-1.2q-2.822,0-2.822,1.652a1.4,1.4,0,0,0,.481,1.129A1.85,1.85,0,0,0,155.416-1.17Zm9.853.083a2.212,2.212,0,0,0,1.436-.5,1.752,1.752,0,0,0,.681-1.245h1.453a2.785,2.785,0,0,1-.531,1.469A3.5,3.5,0,0,1,167-.249a3.772,3.772,0,0,1-1.731.415,3.7,3.7,0,0,1-2.918-1.224,4.877,4.877,0,0,1-1.083-3.349v-.257A5.407,5.407,0,0,1,161.749-7a3.667,3.667,0,0,1,1.382-1.585,3.926,3.926,0,0,1,2.129-.564,3.6,3.6,0,0,1,2.511.9,3.234,3.234,0,0,1,1.067,2.349h-1.453a2.116,2.116,0,0,0-.66-1.432,2.053,2.053,0,0,0-1.465-.56,2.149,2.149,0,0,0-1.814.843,3.957,3.957,0,0,0-.643,2.436v.291a3.878,3.878,0,0,0,.639,2.391A2.16,2.16,0,0,0,165.269-1.087ZM172.233,0H170.7V-8.981h1.536Zm-1.66-11.364a.917.917,0,0,1,.228-.631.857.857,0,0,1,.677-.257.87.87,0,0,1,.681.257.907.907,0,0,1,.232.631.877.877,0,0,1-.232.623.886.886,0,0,1-.681.249.872.872,0,0,1-.677-.249A.886.886,0,0,1,170.573-11.364Zm3.71,6.79a5.3,5.3,0,0,1,.519-2.374,3.87,3.87,0,0,1,1.444-1.627,3.932,3.932,0,0,1,2.113-.573,3.788,3.788,0,0,1,2.968,1.27A4.886,4.886,0,0,1,182.459-4.5v.108a5.351,5.351,0,0,1-.5,2.353,3.813,3.813,0,0,1-1.436,1.623,3.977,3.977,0,0,1-2.146.581,3.778,3.778,0,0,1-2.959-1.27,4.861,4.861,0,0,1-1.133-3.362Zm1.544.183a3.842,3.842,0,0,0,.693,2.4,2.218,2.218,0,0,0,1.855.9A2.2,2.2,0,0,0,180.235-2a4.2,4.2,0,0,0,.689-2.569,3.836,3.836,0,0,0-.7-2.395,2.23,2.23,0,0,0-1.864-.917,2.205,2.205,0,0,0-1.834.9A4.17,4.17,0,0,0,175.827-4.391Zm3.229-8.342h1.859l-2.225,2.44-1.237,0Zm6.782,3.752.05,1.129a3.273,3.273,0,0,1,2.689-1.295q2.847,0,2.872,3.212V0h-1.536V-5.943a2.068,2.068,0,0,0-.444-1.436,1.78,1.78,0,0,0-1.357-.465,2.216,2.216,0,0,0-1.312.4,2.706,2.706,0,0,0-.88,1.046V0h-1.536V-8.981Z" transform="translate(327.13 1749.955)" fill="#fff"/>
      <g id="_8k9e7V" data-name="8k9e7V" transform="translate(618.889 1726.345)">
        <g id="Grupo_142362" data-name="Grupo 142362" transform="translate(-382.44 -2.119)">
          <path id="Trazado_174756" data-name="Trazado 174756" d="M-375.7,43.731v1.908l-1.388.062V64.949h32.426V45.72l-1.4-.093V43.744c.846,0,1.689-.052,2.522.017.645.053.868.538.864,1.163-.013,1.8,0,3.607,0,5.41,0,5.281.01,10.562-.014,15.843a1.316,1.316,0,0,0,.655,1.262c.775.507,1.482,1.117,2.26,1.619.51.33.6.791.3,1.166a4.424,4.424,0,0,1-1.57,1.373,6.86,6.86,0,0,1-2.555.476q-17.273.044-34.546,0a9.786,9.786,0,0,1-2.775-.552,2.615,2.615,0,0,1-1.137-.877c-.584-.722-.483-1.154.265-1.7.706-.518,1.395-1.062,2.126-1.541a1.193,1.193,0,0,0,.58-1.142q-.024-10.472-.011-20.944c0-1.336.243-1.579,1.567-1.58Zm34.243,25.706.057-.174c-.937-.749-1.864-1.51-2.82-2.234a1.2,1.2,0,0,0-.669-.105q-16-.007-32,0a1.192,1.192,0,0,0-.668.111c-.95.724-1.871,1.485-2.8,2.234l.062.168h.9c4.019,0,8.039,0,12.058.011.269,0,.691.079.777.253a1.288,1.288,0,0,0,1.2.684c.154.015.308.02.463.02,2.68,0,5.359.024,8.038-.02a2.022,2.022,0,0,0,1.445-.47,1.078,1.078,0,0,1,1.077-.481q5.99,0,11.981,0Z" transform="translate(382.44 -36.638)" fill="#0f1027"/>
          <path id="Trazado_174757" data-name="Trazado 174757" d="M-275.527,70.221c-1.779-1.028-3.423-1.966-5.049-2.935a.757.757,0,0,1-.273-.562c-.02-1.849-.012-3.7-.012-5.7.427.235.776.42,1.117.617,1.247.717,2.5,1.423,3.728,2.171a1.014,1.014,0,0,1,.468.68C-275.51,66.344-275.527,68.193-275.527,70.221Z" transform="translate(296.567 -51.265)" fill="#0f1027"/>
          <path id="Trazado_174758" data-name="Trazado 174758" d="M-234.343,60.861c0,2.039.009,3.91-.014,5.78a.749.749,0,0,1-.319.536c-1.608.954-3.233,1.88-5,2.9V67.764c0-1.1-.014-2.21.012-3.314a.876.876,0,0,1,.265-.647C-237.777,62.828-236.129,61.892-234.343,60.861Z" transform="translate(261.753 -51.124)" fill="#0f1027"/>
          <path id="Trazado_174759" data-name="Trazado 174759" d="M-266.744,38.686c-1.724,1-3.342,1.943-4.978,2.857a.829.829,0,0,1-.689,0c-1.635-.916-3.253-1.863-4.964-2.854,1.738-1,3.4-1.972,5.072-2.914a.681.681,0,0,1,.561.041C-270.11,36.735-268.49,37.678-266.744,38.686Z" transform="translate(293.618 -29.877)" fill="#0f1027"/>
          <path id="Trazado_174760" data-name="Trazado 174760" d="M-253.61,3.817c-1.09-.287-1.467-.766-1.6-1.629a27.836,27.836,0,0,0-.82-3.132h-.434c-.282,1.043-.6,2.078-.835,3.133-.242,1.1-.2,1.108-1.367,1.575a13.946,13.946,0,0,1,1.174-4.847,2.143,2.143,0,0,1,1.22-1.009c.651-.157,1.106.426,1.284,1C-254.5.469-254.1,2.054-253.61,3.817Z" transform="translate(277.798 2.119)" fill="#0f1027"/>
          <path id="Trazado_174761" data-name="Trazado 174761" d="M-309.326,39.909c-1.126-1.075-2.157-2.033-3.151-3.028a2.967,2.967,0,0,1-.607-.974,1.079,1.079,0,0,1,.995-1.633,6.42,6.42,0,0,1,1.976.216c1.128.308,2.226.728,3.4,1.123a1.729,1.729,0,0,1-2.153.446,14.1,14.1,0,0,0-3.1-.729,5.176,5.176,0,0,0,2.005,2.443A1.738,1.738,0,0,1-309.326,39.909Z" transform="translate(323.914 -28.641)" fill="#0f1027"/>
          <path id="Trazado_174762" data-name="Trazado 174762" d="M-209.46,35.078a27.2,27.2,0,0,0-3.116.867,1.7,1.7,0,0,1-2.062-.427,14.269,14.269,0,0,1,5.023-1.417c1.339-.024,1.934.98,1.1,2.044a28.33,28.33,0,0,1-3.461,3.485c-.221-.709-.351-1.278.315-1.789a18.562,18.562,0,0,0,1.887-1.811,3.965,3.965,0,0,0,.441-.681Z" transform="translate(240.581 -28.5)" fill="#0f1027"/>
          <path id="Trazado_174763" data-name="Trazado 174763" d="M-308.642,85.556a1.74,1.74,0,0,1-.608,1.973,27.514,27.514,0,0,0-2.259,2.225l.213.373c.965-.245,1.941-.455,2.892-.746,1.059-.324,1.049-.356,2.15.56-1.61.416-3.08.837-4.57,1.162-.6.132-1.384.09-1.583-.6a2.25,2.25,0,0,1,.3-1.626A14.31,14.31,0,0,1-308.642,85.556Z" transform="translate(323.279 -72.001)" fill="#0f1027"/>
          <path id="Trazado_174764" data-name="Trazado 174764" d="M-212.91,89.793a1.733,1.733,0,0,1,2.038-.449,21.362,21.362,0,0,0,2.856.776l.141-.221a3.405,3.405,0,0,0-.4-.67,14.115,14.115,0,0,0-1.757-1.719,1.7,1.7,0,0,1-.611-1.975,14.082,14.082,0,0,1,3.687,3.641c.612,1.052.1,1.926-1.124,1.928A13.291,13.291,0,0,1-212.91,89.793Z" transform="translate(239.12 -71.983)" fill="#0f1027"/>
          <path id="Trazado_174765" data-name="Trazado 174765" d="M-256.845,126.085a24.368,24.368,0,0,0,.747-2.777,1.7,1.7,0,0,1,1.4-1.593,11.978,11.978,0,0,1-1.282,4.867,1.178,1.178,0,0,1-2.252-.187c-.586-1.463-.921-3.026-1.4-4.664,1.171.279,1.331.471,1.517,1.261.243,1.037.545,2.06.822,3.089Z" transform="translate(278.62 -102.57)" fill="#0f1027"/>
        </g>
      </g>
    </g>
  </g>
</svg>
