<svg xmlns="http://www.w3.org/2000/svg" xmlns:xlink="http://www.w3.org/1999/xlink" width="246" height="198" viewBox="0 0 246 198">
  <defs>
    <filter id="Rectángulo_37253" x="0" y="0" width="246" height="198" filterUnits="userSpaceOnUse">
      <feOffset dy="3" input="SourceAlpha"/>
      <feGaussianBlur stdDeviation="3" result="blur"/>
      <feFlood flood-opacity="0.161"/>
      <feComposite operator="in" in2="blur"/>
      <feComposite in="SourceGraphic"/>
    </filter>
  </defs>
  <g id="Grupo_142927" data-name="Grupo 142927" transform="translate(-549 -3821)">
    <g transform="matrix(1, 0, 0, 1, 549, 3821)" filter="url(#Rectángulo_37253)">
      <rect id="Rectángulo_37253-2" data-name="Rectángulo 37253" width="228" height="180" rx="10" transform="translate(9 6)" fill="#fff"/>
    </g>
    <path id="Trazado_183622" data-name="Trazado 183622" d="M72.07,3.625h2.344V11.5a3.766,3.766,0,0,1-.48,1.918A3.261,3.261,0,0,1,72.578,14.7a4.235,4.235,0,0,1-1.977.453,4.025,4.025,0,0,1-2.812-.918,3.335,3.335,0,0,1-1.008-2.6h2.359a1.829,1.829,0,0,0,.352,1.234,1.407,1.407,0,0,0,1.109.4,1.343,1.343,0,0,0,1.07-.461,1.948,1.948,0,0,0,.4-1.312Zm9.266,10.516a2.831,2.831,0,0,1-2.312,1.016,2.67,2.67,0,0,1-2.074-.781,3.335,3.335,0,0,1-.73-2.289V6.547h2.258v5.467q0,1.322,1.2,1.322a1.63,1.63,0,0,0,1.578-.8V6.547h2.266V15H81.4ZM87.3,6.547l.07.977A2.951,2.951,0,0,1,89.8,6.391a2.453,2.453,0,0,1,2,.789,3.682,3.682,0,0,1,.672,2.359V15H90.219V9.581a1.47,1.47,0,0,0-.312-1.045,1.4,1.4,0,0,0-1.039-.325,1.553,1.553,0,0,0-1.43.814V15H85.18V6.547Zm9.586-2.078V6.547h1.445V8.2H96.891v4.219a1.007,1.007,0,0,0,.18.672.9.9,0,0,0,.688.2,3.6,3.6,0,0,0,.664-.055v1.711a4.648,4.648,0,0,1-1.367.2,2.156,2.156,0,0,1-2.422-2.4V8.2H93.4V6.547h1.234V4.469ZM104.492,15a2.507,2.507,0,0,1-.227-.758,2.732,2.732,0,0,1-2.133.914,3,3,0,0,1-2.059-.719,2.312,2.312,0,0,1-.816-1.812,2.389,2.389,0,0,1,1-2.062,4.915,4.915,0,0,1,2.879-.727h1.039V9.352a1.393,1.393,0,0,0-.3-.937,1.183,1.183,0,0,0-.949-.352,1.345,1.345,0,0,0-.895.273.929.929,0,0,0-.324.75H99.445A2.268,2.268,0,0,1,99.9,7.727a3,3,0,0,1,1.281-.98,4.669,4.669,0,0,1,1.859-.355,3.689,3.689,0,0,1,2.48.785,2.747,2.747,0,0,1,.918,2.207v3.664a4.041,4.041,0,0,0,.336,1.82V15Zm-1.867-1.57a1.945,1.945,0,0,0,.922-.223,1.462,1.462,0,0,0,.625-.6V11.156h-.844q-1.7,0-1.8,1.172l-.008.133a.9.9,0,0,0,.3.7A1.153,1.153,0,0,0,102.625,13.43Zm10.125-.766a.727.727,0,0,0-.41-.652,4.659,4.659,0,0,0-1.316-.426q-3.016-.633-3.016-2.562a2.323,2.323,0,0,1,.934-1.879,3.766,3.766,0,0,1,2.441-.754,4.053,4.053,0,0,1,2.574.758,2.388,2.388,0,0,1,.965,1.969h-2.258a1.092,1.092,0,0,0-.312-.8A1.322,1.322,0,0,0,111.375,8a1.351,1.351,0,0,0-.883.258.814.814,0,0,0-.312.656.7.7,0,0,0,.355.605,3.657,3.657,0,0,0,1.2.4,9.8,9.8,0,0,1,1.422.379,2.336,2.336,0,0,1,1.789,2.273,2.2,2.2,0,0,1-.992,1.871,4.28,4.28,0,0,1-2.562.715,4.47,4.47,0,0,1-1.887-.379,3.166,3.166,0,0,1-1.293-1.039,2.414,2.414,0,0,1-.469-1.426h2.141a1.179,1.179,0,0,0,.445.922,1.766,1.766,0,0,0,1.109.32,1.635,1.635,0,0,0,.98-.246A.766.766,0,0,0,112.75,12.664Z" transform="translate(576 3944)" fill="#12263f"/>
    <g id="Grupo_142439" data-name="Grupo 142439" transform="translate(124 -1984)">
      <circle id="Elipse_4868" data-name="Elipse 4868" cx="43" cy="43" r="43" transform="translate(500 5830)" fill="#0f1027"/>
      <g id="Grupo_142869" data-name="Grupo 142869" transform="translate(4418.532 6197.67)">
        <rect id="Rectángulo_40578" data-name="Rectángulo 40578" width="47.344" height="10.245" rx="5.123" transform="translate(-3898.402 -339.045)" fill="none" stroke="#fff" stroke-miterlimit="10" stroke-width="2"/>
        <rect id="Rectángulo_40579" data-name="Rectángulo 40579" width="47.344" height="10.245" rx="5.123" transform="translate(-3893.257 -341.16) rotate(45)" fill="none" stroke="#fff" stroke-miterlimit="10" stroke-width="2"/>
        <circle id="Elipse_5004" data-name="Elipse 5004" cx="2.848" cy="2.848" r="2.848" transform="translate(-3895.993 -336.831)" fill="none" stroke="#fff" stroke-miterlimit="10" stroke-width="2"/>
      </g>
    </g>
  </g>
</svg>
