<svg xmlns="http://www.w3.org/2000/svg" xmlns:xlink="http://www.w3.org/1999/xlink" width="246" height="198" viewBox="0 0 246 198">
  <defs>
    <filter id="Rectángulo_37254" x="0" y="0" width="246" height="198" filterUnits="userSpaceOnUse">
      <feOffset dy="3" input="SourceAlpha"/>
      <feGaussianBlur stdDeviation="3" result="blur"/>
      <feFlood flood-opacity="0.161"/>
      <feComposite operator="in" in2="blur"/>
      <feComposite in="SourceGraphic"/>
    </filter>
    <clipPath id="clip-path">
      <rect id="Rectángulo_40582" data-name="Rectángulo 40582" width="52.926" height="47.328" fill="none" stroke="#fff" stroke-width="1"/>
    </clipPath>
  </defs>
  <g id="Grupo_142928" data-name="Grupo 142928" transform="translate(-793 -3821)">
    <g transform="matrix(1, 0, 0, 1, 793, 3821)" filter="url(#Rectángulo_37254)">
      <rect id="Rectángulo_37254-2" data-name="Rectángulo 37254" width="228" height="180" rx="10" transform="translate(9 6)" fill="#fff"/>
    </g>
    <path id="Trazado_183623" data-name="Trazado 183623" d="M57.348,12.656H53.238L52.457,15H49.965L54.2,3.625h2.172L60.629,15H58.137Zm-3.477-1.9h2.844L55.285,6.5Zm11.188,2.578a1.481,1.481,0,0,0,1.016-.344,1.2,1.2,0,0,0,.406-.914H68.6a2.9,2.9,0,0,1-.469,1.574,3.093,3.093,0,0,1-1.262,1.109,3.949,3.949,0,0,1-1.77.395A3.67,3.67,0,0,1,62.238,14a4.56,4.56,0,0,1-1.047-3.184v-.148A4.508,4.508,0,0,1,62.23,7.555a3.627,3.627,0,0,1,2.852-1.164,3.555,3.555,0,0,1,2.543.9A3.2,3.2,0,0,1,68.6,9.7H66.48a1.551,1.551,0,0,0-.406-1.072,1.51,1.51,0,0,0-2.223.163,3.333,3.333,0,0,0-.4,1.866v.235a3.375,3.375,0,0,0,.4,1.878A1.377,1.377,0,0,0,65.059,13.336Zm8.344,0a1.481,1.481,0,0,0,1.016-.344,1.2,1.2,0,0,0,.406-.914h2.117a2.9,2.9,0,0,1-.469,1.574,3.093,3.093,0,0,1-1.262,1.109,3.949,3.949,0,0,1-1.77.395A3.67,3.67,0,0,1,70.582,14a4.56,4.56,0,0,1-1.047-3.184v-.148a4.508,4.508,0,0,1,1.039-3.117,3.627,3.627,0,0,1,2.852-1.164,3.555,3.555,0,0,1,2.543.9,3.2,3.2,0,0,1,.973,2.4H74.824a1.551,1.551,0,0,0-.406-1.072,1.51,1.51,0,0,0-2.223.163,3.333,3.333,0,0,0-.4,1.866v.235a3.375,3.375,0,0,0,.4,1.878A1.377,1.377,0,0,0,73.4,13.336ZM80.613,15H78.348V6.547h2.266Zm-2.4-10.641a1.112,1.112,0,0,1,.34-.836,1.465,1.465,0,0,1,1.848,0,1.105,1.105,0,0,1,.344.836A1.108,1.108,0,0,1,80.4,5.2a1.448,1.448,0,0,1-1.836,0A1.108,1.108,0,0,1,78.215,4.359ZM82.121,10.7a5.013,5.013,0,0,1,.484-2.242A3.546,3.546,0,0,1,84,6.93a4.069,4.069,0,0,1,2.113-.539,3.849,3.849,0,0,1,2.793,1.047,4.2,4.2,0,0,1,1.207,2.844l.016.578a4.418,4.418,0,0,1-1.086,3.121,4.209,4.209,0,0,1-5.832,0,4.5,4.5,0,0,1-1.09-3.187Zm2.258.16a3.16,3.16,0,0,0,.453,1.843,1.628,1.628,0,0,0,2.578.008,3.457,3.457,0,0,0,.461-2.015A3.128,3.128,0,0,0,87.41,8.86a1.5,1.5,0,0,0-1.3-.649,1.474,1.474,0,0,0-1.281.646A3.516,3.516,0,0,0,84.379,10.856ZM93.6,6.547l.07.977A2.951,2.951,0,0,1,96.1,6.391a2.453,2.453,0,0,1,2,.789,3.682,3.682,0,0,1,.672,2.359V15H96.512V9.581A1.47,1.47,0,0,0,96.2,8.536a1.4,1.4,0,0,0-1.039-.325,1.553,1.553,0,0,0-1.43.814V15H91.473V6.547ZM105.379,15a2.507,2.507,0,0,1-.227-.758,2.732,2.732,0,0,1-2.133.914,3,3,0,0,1-2.059-.719,2.312,2.312,0,0,1-.816-1.812,2.389,2.389,0,0,1,1-2.062,4.915,4.915,0,0,1,2.879-.727h1.039V9.352a1.393,1.393,0,0,0-.3-.937,1.183,1.183,0,0,0-.949-.352,1.345,1.345,0,0,0-.895.273.929.929,0,0,0-.324.75h-2.258a2.268,2.268,0,0,1,.453-1.359,3,3,0,0,1,1.281-.98,4.669,4.669,0,0,1,1.859-.355,3.689,3.689,0,0,1,2.48.785,2.747,2.747,0,0,1,.918,2.207v3.664a4.041,4.041,0,0,0,.336,1.82V15Zm-1.867-1.57a1.945,1.945,0,0,0,.922-.223,1.462,1.462,0,0,0,.625-.6V11.156h-.844q-1.7,0-1.8,1.172l-.008.133a.9.9,0,0,0,.3.7A1.153,1.153,0,0,0,103.512,13.43Zm5.2-2.719a5.094,5.094,0,0,1,.887-3.148,2.877,2.877,0,0,1,2.426-1.172,2.589,2.589,0,0,1,2.039.922V3h2.266V15h-2.039l-.109-.9A2.657,2.657,0,0,1,112,15.156a2.869,2.869,0,0,1-2.395-1.176A5.258,5.258,0,0,1,108.707,10.711Zm2.258.161a3.355,3.355,0,0,0,.414,1.829,1.348,1.348,0,0,0,1.2.636,1.51,1.51,0,0,0,1.477-.887V9.1a1.489,1.489,0,0,0-1.461-.887Q110.965,8.211,110.965,10.872Zm6.758-.176a5.013,5.013,0,0,1,.484-2.242A3.546,3.546,0,0,1,119.6,6.93a4.069,4.069,0,0,1,2.113-.539,3.849,3.849,0,0,1,2.793,1.047,4.2,4.2,0,0,1,1.207,2.844l.016.578a4.418,4.418,0,0,1-1.086,3.121,4.209,4.209,0,0,1-5.832,0,4.5,4.5,0,0,1-1.09-3.187Zm2.258.16a3.16,3.16,0,0,0,.453,1.843,1.628,1.628,0,0,0,2.578.008,3.457,3.457,0,0,0,.461-2.015,3.128,3.128,0,0,0-.461-1.831,1.5,1.5,0,0,0-1.3-.649,1.474,1.474,0,0,0-1.281.646A3.516,3.516,0,0,0,119.98,10.856Zm11.891-2.192a6.134,6.134,0,0,0-.812-.062,1.654,1.654,0,0,0-1.68.867V15h-2.258V6.547h2.133l.063,1.008A2.092,2.092,0,0,1,131.2,6.391a2.366,2.366,0,0,1,.7.1Z" transform="translate(820 3944)" fill="#12263f"/>
    <g id="Grupo_142440" data-name="Grupo 142440" transform="translate(124 -1984)">
      <circle id="Elipse_4869" data-name="Elipse 4869" cx="43" cy="43" r="43" transform="translate(744 5830)" fill="#af0f3f"/>
      <g id="Grupo_142872" data-name="Grupo 142872" transform="translate(4674.598 6208.729)">
        <g id="Grupo_142871" data-name="Grupo 142871" transform="translate(-3915.693 -356.919)">
          <g id="Grupo_142870" data-name="Grupo 142870" transform="translate(0)" clip-path="url(#clip-path)">
            <rect id="Rectángulo_40580" data-name="Rectángulo 40580" width="82.846" height="17.928" rx="8.964" transform="translate(6.734 6.875)" fill="none" stroke="#fff" stroke-miterlimit="10" stroke-width="2"/>
            <rect id="Rectángulo_40581" data-name="Rectángulo 40581" width="82.846" height="17.928" rx="8.964" transform="translate(15.737 3.175) rotate(45)" fill="none" stroke="#fff" stroke-miterlimit="10" stroke-width="2"/>
            <circle id="Elipse_5005" data-name="Elipse 5005" cx="4.984" cy="4.984" r="4.984" transform="translate(10.95 10.749)" fill="none" stroke="#fff" stroke-miterlimit="10" stroke-width="2"/>
          </g>
        </g>
        <path id="Trazado_183617" data-name="Trazado 183617" d="M-3898.585-317.42s-7.87-15.215,4.459-22.3" transform="translate(-11.685 -13.737)" fill="none" stroke="#fff" stroke-miterlimit="10" stroke-width="2"/>
        <path id="Trazado_183618" data-name="Trazado 183618" d="M-3869.245-346.76l1.126-3.488-3.488-1.127S-3869.356-346.8-3869.245-346.76Z" transform="translate(-35.205 -4.427)" fill="none" stroke="#fff" stroke-miterlimit="10" stroke-width="2"/>
        <path id="Trazado_183619" data-name="Trazado 183619" d="M-3900.569-231.314l3.488,1.127,1.127-3.488S-3900.533-231.426-3900.569-231.314Z" transform="translate(-12.077 -98.417)" fill="none" stroke="#fff" stroke-miterlimit="10" stroke-width="2"/>
      </g>
    </g>
  </g>
</svg>
