<svg xmlns="http://www.w3.org/2000/svg" xmlns:xlink="http://www.w3.org/1999/xlink" width="246" height="198" viewBox="0 0 246 198">
  <defs>
    <filter id="Rect치ngulo_37255" x="0" y="0" width="246" height="198" filterUnits="userSpaceOnUse">
      <feOffset dy="3" input="SourceAlpha"/>
      <feGaussianBlur stdDeviation="3" result="blur"/>
      <feFlood flood-opacity="0.161"/>
      <feComposite operator="in" in2="blur"/>
      <feComposite in="SourceGraphic"/>
    </filter>
  </defs>
  <g id="Grupo_142929" data-name="Grupo 142929" transform="translate(-1037 -3821)">
    <g transform="matrix(1, 0, 0, 1, 1037, 3821)" filter="url(#Rect치ngulo_37255)">
      <rect id="Rect치ngulo_37255-2" data-name="Rect치ngulo 37255" width="228" height="180" rx="10" transform="translate(9 6)" fill="#fff"/>
    </g>
    <path id="Trazado_183624" data-name="Trazado 183624" d="M28.727,13.563a4.068,4.068,0,0,1-1.789,1.176,7.492,7.492,0,0,1-2.562.418,5.076,5.076,0,0,1-2.59-.645,4.3,4.3,0,0,1-1.719-1.871,6.585,6.585,0,0,1-.621-2.883V8.984a6.994,6.994,0,0,1,.574-2.949,4.248,4.248,0,0,1,1.656-1.906,4.771,4.771,0,0,1,2.535-.66,4.751,4.751,0,0,1,3.164.965,4.123,4.123,0,0,1,1.352,2.809H26.445a2.268,2.268,0,0,0-.691-1.43,2.208,2.208,0,0,0-1.473-.453,2.078,2.078,0,0,0-1.82.9,4.724,4.724,0,0,0-.633,2.672v.727a4.5,4.5,0,0,0,.68,2.7,2.327,2.327,0,0,0,1.992.914,2.6,2.6,0,0,0,1.883-.562V10.75H24.25V9.023h4.477Zm5.641,1.594a4.15,4.15,0,0,1-3.027-1.141,4.054,4.054,0,0,1-1.168-3.039v-.219a5.106,5.106,0,0,1,.492-2.277,3.612,3.612,0,0,1,1.395-1.547,3.914,3.914,0,0,1,2.059-.543,3.508,3.508,0,0,1,2.73,1.094,4.444,4.444,0,0,1,1,3.1v.922H32.461a2.1,2.1,0,0,0,.66,1.328,2,2,0,0,0,1.395.5,2.437,2.437,0,0,0,2.039-.945l1.109,1.242a3.389,3.389,0,0,1-1.375,1.121A4.511,4.511,0,0,1,34.367,15.156Zm-.258-6.945a1.411,1.411,0,0,0-1.09.455,2.357,2.357,0,0,0-.535,1.3h3.141V9.788a1.681,1.681,0,0,0-.406-1.165A1.456,1.456,0,0,0,34.109,8.211ZM43.7,12.664a.727.727,0,0,0-.41-.652,4.659,4.659,0,0,0-1.316-.426q-3.016-.633-3.016-2.562a2.323,2.323,0,0,1,.934-1.879,3.766,3.766,0,0,1,2.441-.754,4.053,4.053,0,0,1,2.574.758,2.388,2.388,0,0,1,.965,1.969H43.617a1.092,1.092,0,0,0-.312-.8A1.322,1.322,0,0,0,42.328,8a1.351,1.351,0,0,0-.883.258.814.814,0,0,0-.312.656.7.7,0,0,0,.355.605,3.657,3.657,0,0,0,1.2.4,9.8,9.8,0,0,1,1.422.379A2.336,2.336,0,0,1,45.9,12.57a2.2,2.2,0,0,1-.992,1.871,4.28,4.28,0,0,1-2.562.715,4.47,4.47,0,0,1-1.887-.379,3.166,3.166,0,0,1-1.293-1.039,2.414,2.414,0,0,1-.469-1.426h2.141a1.179,1.179,0,0,0,.445.922,1.766,1.766,0,0,0,1.109.32,1.635,1.635,0,0,0,.98-.246A.766.766,0,0,0,43.7,12.664Zm6.352-8.2V6.547H51.5V8.2H50.055v4.219a1.007,1.007,0,0,0,.18.672.9.9,0,0,0,.688.2,3.6,3.6,0,0,0,.664-.055v1.711a4.648,4.648,0,0,1-1.367.2,2.156,2.156,0,0,1-2.422-2.4V8.2H46.563V6.547H47.8V4.469ZM52.172,10.7a5.013,5.013,0,0,1,.484-2.242A3.546,3.546,0,0,1,54.051,6.93a4.069,4.069,0,0,1,2.113-.539,3.849,3.849,0,0,1,2.793,1.047,4.2,4.2,0,0,1,1.207,2.844l.016.578a4.418,4.418,0,0,1-1.086,3.121,4.209,4.209,0,0,1-5.832,0,4.5,4.5,0,0,1-1.09-3.187Zm2.258.16a3.16,3.16,0,0,0,.453,1.843,1.628,1.628,0,0,0,2.578.008,3.457,3.457,0,0,0,.461-2.015,3.128,3.128,0,0,0-.461-1.831,1.5,1.5,0,0,0-1.3-.649,1.474,1.474,0,0,0-1.281.646A3.516,3.516,0,0,0,54.43,10.856ZM66.32,8.664a6.134,6.134,0,0,0-.812-.062,1.654,1.654,0,0,0-1.68.867V15H61.57V6.547H63.7l.063,1.008a2.092,2.092,0,0,1,1.883-1.164,2.366,2.366,0,0,1,.7.1Zm4.719,2.047a5.094,5.094,0,0,1,.887-3.148,2.877,2.877,0,0,1,2.426-1.172,2.589,2.589,0,0,1,2.039.922V3h2.266V15H76.617l-.109-.9a2.657,2.657,0,0,1-2.172,1.055,2.869,2.869,0,0,1-2.395-1.176A5.258,5.258,0,0,1,71.039,10.711Zm2.258.161a3.355,3.355,0,0,0,.414,1.829,1.348,1.348,0,0,0,1.2.636,1.51,1.51,0,0,0,1.477-.887V9.1a1.489,1.489,0,0,0-1.461-.887Q73.3,8.211,73.3,10.872Zm11,4.285a4.15,4.15,0,0,1-3.027-1.141A4.054,4.054,0,0,1,80.1,10.977v-.219a5.106,5.106,0,0,1,.492-2.277,3.612,3.612,0,0,1,1.395-1.547,3.914,3.914,0,0,1,2.059-.543,3.508,3.508,0,0,1,2.73,1.094,4.444,4.444,0,0,1,1,3.1v.922H82.391a2.1,2.1,0,0,0,.66,1.328,2,2,0,0,0,1.395.5,2.437,2.437,0,0,0,2.039-.945l1.109,1.242a3.389,3.389,0,0,1-1.375,1.121A4.511,4.511,0,0,1,84.3,15.156Zm-.258-6.945a1.411,1.411,0,0,0-1.09.455,2.357,2.357,0,0,0-.535,1.3h3.141V9.788a1.681,1.681,0,0,0-.406-1.165A1.456,1.456,0,0,0,84.039,8.211ZM93.656,15V8.2H92.4V6.547h1.258V5.828a2.918,2.918,0,0,1,.816-2.207,3.162,3.162,0,0,1,2.285-.785,5.321,5.321,0,0,1,1.148.155l-.023,1.736a2.878,2.878,0,0,0-.687-.07q-1.273,0-1.273,1.205v.685H97.6V8.2h-1.68V15Zm10.18-.859a2.831,2.831,0,0,1-2.312,1.016,2.67,2.67,0,0,1-2.074-.781,3.335,3.335,0,0,1-.73-2.289V6.547h2.258v5.467q0,1.322,1.2,1.322a1.63,1.63,0,0,0,1.578-.8V6.547h2.266V15H103.9ZM109.8,6.547l.07.977a2.951,2.951,0,0,1,2.43-1.133,2.453,2.453,0,0,1,2,.789,3.682,3.682,0,0,1,.672,2.359V15h-2.258V9.581a1.47,1.47,0,0,0-.312-1.045,1.4,1.4,0,0,0-1.039-.325,1.553,1.553,0,0,0-1.43.814V15H107.68V6.547Zm10.4,6.789a1.481,1.481,0,0,0,1.016-.344,1.2,1.2,0,0,0,.406-.914h2.117a2.9,2.9,0,0,1-.469,1.574,3.093,3.093,0,0,1-1.262,1.109,3.949,3.949,0,0,1-1.77.395A3.67,3.67,0,0,1,117.383,14a4.56,4.56,0,0,1-1.047-3.184v-.148a4.508,4.508,0,0,1,1.039-3.117,3.627,3.627,0,0,1,2.852-1.164,3.555,3.555,0,0,1,2.543.9,3.2,3.2,0,0,1,.973,2.4h-2.117a1.551,1.551,0,0,0-.406-1.072A1.51,1.51,0,0,0,119,8.786a3.333,3.333,0,0,0-.4,1.866v.235a3.375,3.375,0,0,0,.4,1.878A1.377,1.377,0,0,0,120.2,13.336ZM127.414,15h-2.266V6.547h2.266Zm-2.4-10.641a1.112,1.112,0,0,1,.34-.836,1.465,1.465,0,0,1,1.848,0,1.105,1.105,0,0,1,.344.836,1.108,1.108,0,0,1-.348.844,1.448,1.448,0,0,1-1.836,0A1.108,1.108,0,0,1,125.016,4.359Zm3.906,6.336a5.013,5.013,0,0,1,.484-2.242A3.546,3.546,0,0,1,130.8,6.93a4.069,4.069,0,0,1,2.113-.539,3.849,3.849,0,0,1,2.793,1.047,4.2,4.2,0,0,1,1.207,2.844l.016.578a4.418,4.418,0,0,1-1.086,3.121,4.209,4.209,0,0,1-5.832,0,4.5,4.5,0,0,1-1.09-3.187Zm2.258.16a3.16,3.16,0,0,0,.453,1.843,1.628,1.628,0,0,0,2.578.008,3.457,3.457,0,0,0,.461-2.015,3.128,3.128,0,0,0-.461-1.831,1.5,1.5,0,0,0-1.3-.649,1.474,1.474,0,0,0-1.281.646A3.516,3.516,0,0,0,131.18,10.856ZM140.4,6.547l.07.977a2.951,2.951,0,0,1,2.43-1.133,2.453,2.453,0,0,1,2,.789,3.682,3.682,0,0,1,.672,2.359V15h-2.258V9.581A1.47,1.47,0,0,0,143,8.536a1.4,1.4,0,0,0-1.039-.325,1.553,1.553,0,0,0-1.43.814V15h-2.258V6.547Zm10.773,8.609a4.15,4.15,0,0,1-3.027-1.141,4.054,4.054,0,0,1-1.168-3.039v-.219a5.106,5.106,0,0,1,.492-2.277,3.612,3.612,0,0,1,1.395-1.547,3.914,3.914,0,0,1,2.059-.543,3.508,3.508,0,0,1,2.73,1.094,4.444,4.444,0,0,1,1,3.1v.922h-5.383a2.1,2.1,0,0,0,.66,1.328,2,2,0,0,0,1.395.5,2.437,2.437,0,0,0,2.039-.945l1.109,1.242a3.389,3.389,0,0,1-1.375,1.121A4.511,4.511,0,0,1,151.172,15.156Zm-.258-6.945a1.411,1.411,0,0,0-1.09.455,2.357,2.357,0,0,0-.535,1.3h3.141V9.788a1.681,1.681,0,0,0-.406-1.165A1.456,1.456,0,0,0,150.914,8.211Zm9.594,4.453a.727.727,0,0,0-.41-.652,4.659,4.659,0,0,0-1.316-.426q-3.016-.633-3.016-2.562a2.323,2.323,0,0,1,.934-1.879,3.766,3.766,0,0,1,2.441-.754,4.053,4.053,0,0,1,2.574.758,2.388,2.388,0,0,1,.965,1.969h-2.258a1.092,1.092,0,0,0-.312-.8A1.322,1.322,0,0,0,159.133,8a1.351,1.351,0,0,0-.883.258.814.814,0,0,0-.312.656.7.7,0,0,0,.355.605,3.657,3.657,0,0,0,1.2.4,9.8,9.8,0,0,1,1.422.379A2.336,2.336,0,0,1,162.7,12.57a2.205,2.205,0,0,1-.992,1.871,4.28,4.28,0,0,1-2.562.715,4.47,4.47,0,0,1-1.887-.379,3.166,3.166,0,0,1-1.293-1.039,2.414,2.414,0,0,1-.469-1.426h2.141a1.179,1.179,0,0,0,.445.922,1.766,1.766,0,0,0,1.109.32,1.635,1.635,0,0,0,.98-.246A.766.766,0,0,0,160.508,12.664Z" transform="translate(1064 3944)" fill="#12263f"/>
    <g id="Grupo_142441" data-name="Grupo 142441" transform="translate(124 -1984)">
      <circle id="Elipse_4870" data-name="Elipse 4870" cx="43" cy="43" r="43" transform="translate(988 5830)" fill="#0f1027"/>
      <g id="Fn9hEg" transform="translate(-2061.944 6770.247)">
        <g id="Grupo_142370" data-name="Grupo 142370" transform="translate(3066.98 -920.247)">
          <path id="Trazado_183502" data-name="Trazado 183502" d="M3119.331-919.509v42.174a1.6,1.6,0,0,1-1.523.739q-24.648-.027-49.3-.006a1.587,1.587,0,0,1-1.532-.734v-42.174a1.6,1.6,0,0,1,1.532-.738q24.644.026,49.287.005A1.587,1.587,0,0,1,3119.331-919.509ZM3117.1-878.82v-30.454h-47.9v30.454Zm.019-39.185h-47.9v6.459h47.9Z" transform="translate(-3066.98 920.247)" fill="#fff"/>
          <path id="Trazado_183503" data-name="Trazado 183503" d="M3136.866-797.465c2.043,3.251,4.074,6.46,6.066,9.692a1.662,1.662,0,0,1,.193,1.2,1.085,1.085,0,0,1-.828.641,1.681,1.681,0,0,1-1.117-.621c-.859-1.228-1.629-2.518-2.428-3.788q-1.951-3.1-3.9-6.211c-.564-.9-.563-1.117.051-1.951q3.119-4.239,6.247-8.473a1.134,1.134,0,0,1,1.616-.446c.574.38.657,1.018.152,1.709-1.926,2.639-3.871,5.265-5.809,7.9C3137.044-797.721,3136.976-797.622,3136.866-797.465Z" transform="translate(-3124.63 823.989)" fill="#fff"/>
          <path id="Trazado_183504" data-name="Trazado 183504" d="M3300.571-808.7a4.256,4.256,0,0,1,.929.675q3.3,4.419,6.558,8.871a1.106,1.106,0,0,1,.032,1.351q-3.248,5.157-6.491,10.315a1.093,1.093,0,0,1-1.594.5,1.122,1.122,0,0,1-.242-1.658q2.882-4.614,5.8-9.208a.782.782,0,0,0-.045-1.07c-1.915-2.555-3.792-5.139-5.694-7.705a1.087,1.087,0,0,1-.162-1.335A4.212,4.212,0,0,1,3300.571-808.7Z" transform="translate(-3265.681 824.921)" fill="#fff"/>
          <path id="Trazado_183505" data-name="Trazado 183505" d="M3211.032-775.646a1.146,1.146,0,0,1-1.061-1.836q1.437-2.6,2.891-5.2,2.744-4.907,5.491-9.813c.283-.508.659-.935,1.252-.734a1.761,1.761,0,0,1,.863.839,1.151,1.151,0,0,1-.162.878q-4.213,7.578-8.471,15.13A3.047,3.047,0,0,1,3211.032-775.646Z" transform="translate(-3188.993 811.742)" fill="#fff"/>
          <path id="Trazado_183506" data-name="Trazado 183506" d="M3099.167-889.032a1.11,1.11,0,0,1-1.141,1.057,1.082,1.082,0,0,1-1.035-1.154,1.082,1.082,0,0,1,1.1-1.022A1.11,1.11,0,0,1,3099.167-889.032Z" transform="translate(-3092.625 894.528)" fill="#fff"/>
          <path id="Trazado_183507" data-name="Trazado 183507" d="M3129.176-889.058a1.1,1.1,0,0,1-1.117,1.083,1.082,1.082,0,0,1-1.064-1.13,1.08,1.08,0,0,1,1.075-1.047A1.1,1.1,0,0,1,3129.176-889.058Z" transform="translate(-3118.267 894.528)" fill="#fff"/>
          <path id="Trazado_183508" data-name="Trazado 183508" d="M3158.054-887.975a1.1,1.1,0,0,1-1.052-1.158,1.106,1.106,0,0,1,1.119-1.018,1.12,1.12,0,0,1,1.054,1.158A1.117,1.117,0,0,1,3158.054-887.975Z" transform="translate(-3143.909 894.528)" fill="#fff"/>
        </g>
      </g>
    </g>
  </g>
</svg>
